<svg xmlns="http://www.w3.org/2000/svg" xmlns:xlink="http://www.w3.org/1999/xlink" width="500" zoomAndPan="magnify" viewBox="0 0 375 374.999991" height="500" preserveAspectRatio="xMidYMid meet" version="1.0"><defs><clipPath id="1ffdfb7d8c"><path d="M 24 78 L 219 78 L 219 255 L 24 255 Z M 24 78 " clip-rule="nonzero"/></clipPath><clipPath id="302c791434"><path d="M 195.503906 267.875 L 18.730469 235.695312 L 50.910156 58.921875 L 227.683594 91.101562 Z M 195.503906 267.875 " clip-rule="nonzero"/></clipPath><clipPath id="33dd47fb94"><path d="M 195.503906 267.875 L 18.730469 235.695312 L 50.910156 58.921875 L 227.683594 91.101562 Z M 195.503906 267.875 " clip-rule="nonzero"/></clipPath><clipPath id="b82b951a79"><path d="M 60.042969 133.515625 L 356.507812 133.515625 L 356.507812 315.761719 L 60.042969 315.761719 Z M 60.042969 133.515625 " clip-rule="nonzero"/></clipPath></defs><g clip-path="url(#1ffdfb7d8c)"><g clip-path="url(#302c791434)"><g clip-path="url(#33dd47fb94)"><path fill="#ffffff" d="M 27.792969 213.113281 L 34.074219 218.492188 C 35.246094 219.496094 36.90625 220.195312 38.636719 220.507812 C 40.363281 220.824219 42.164062 220.757812 43.617188 220.230469 L 51.390625 217.410156 C 54.292969 216.355469 57.121094 213.007812 57.675781 209.972656 L 59.183594 201.6875 C 59.347656 200.785156 59.3125 199.785156 59.152344 198.773438 L 110.054688 180.65625 C 110.542969 181.480469 111.113281 182.214844 111.761719 182.777344 L 130.386719 198.90625 C 130.785156 199.25 131.253906 199.542969 131.746094 199.8125 L 128.222656 219.164062 C 127.464844 219.21875 126.730469 219.351562 126.070312 219.589844 L 118.296875 222.410156 C 115.394531 223.464844 112.566406 226.8125 112.011719 229.847656 L 110.503906 238.136719 C 109.953125 241.171875 111.417969 245.300781 113.761719 247.308594 L 120.046875 252.6875 C 121.21875 253.695312 122.878906 254.390625 124.609375 254.707031 C 126.335938 255.019531 128.136719 254.953125 129.585938 254.425781 L 137.363281 251.605469 C 140.265625 250.554688 143.09375 247.207031 143.644531 244.167969 L 145.152344 235.882812 C 145.707031 232.84375 144.242188 228.714844 141.894531 226.707031 L 135.613281 221.328125 C 135.082031 220.871094 134.441406 220.488281 133.746094 220.167969 L 137.21875 201.101562 C 138.171875 201.074219 139.089844 200.933594 139.898438 200.636719 L 163.011719 192.105469 C 165.90625 191.035156 168.730469 187.675781 169.285156 184.636719 L 173.808594 159.78125 C 173.914062 159.199219 173.925781 158.574219 173.894531 157.9375 L 185.269531 153.890625 C 185.683594 154.496094 186.140625 155.046875 186.652344 155.484375 L 192.933594 160.863281 C 194.109375 161.867188 195.765625 162.566406 197.496094 162.878906 C 199.226562 163.195312 201.027344 163.125 202.476562 162.601562 L 210.253906 159.78125 C 213.15625 158.726562 215.980469 155.378906 216.535156 152.339844 L 218.042969 144.054688 C 218.597656 141.015625 217.128906 136.890625 214.785156 134.878906 L 208.503906 129.5 C 207.328125 128.496094 205.671875 127.800781 203.941406 127.484375 C 202.210938 127.167969 200.410156 127.238281 198.960938 127.765625 L 191.1875 130.585938 C 188.28125 131.636719 185.457031 134.984375 184.902344 138.023438 L 183.394531 146.308594 C 183.261719 147.03125 183.253906 147.816406 183.335938 148.617188 L 172.210938 152.578125 C 171.738281 151.804688 171.1875 151.117188 170.570312 150.582031 L 151.945312 134.449219 C 151.296875 133.886719 150.484375 133.433594 149.601562 133.074219 L 153.074219 114.003906 C 153.835938 113.949219 154.570312 113.816406 155.226562 113.578125 L 163.003906 110.757812 C 165.90625 109.703125 168.734375 106.359375 169.285156 103.320312 L 170.792969 95.035156 C 171.347656 91.996094 169.878906 87.867188 167.535156 85.859375 L 161.253906 80.480469 C 160.082031 79.472656 158.417969 78.777344 156.691406 78.460938 C 154.960938 78.148438 153.164062 78.214844 151.710938 78.742188 L 143.9375 81.5625 C 141.03125 82.617188 138.207031 85.960938 137.652344 89 L 136.144531 97.285156 C 135.589844 100.324219 137.058594 104.453125 139.402344 106.460938 L 145.6875 111.839844 C 146.21875 112.296875 146.859375 112.675781 147.550781 113 L 144.027344 132.351562 C 143.472656 132.429688 142.929688 132.539062 142.4375 132.71875 L 119.320312 141.253906 C 118.695312 141.484375 118.074219 141.839844 117.476562 142.261719 L 76.128906 115.203125 C 76.359375 114.65625 76.550781 114.105469 76.652344 113.5625 L 78.160156 105.277344 C 78.710938 102.238281 77.246094 98.109375 74.902344 96.101562 L 68.617188 90.722656 C 67.445312 89.71875 65.785156 89.019531 64.054688 88.707031 C 62.328125 88.390625 60.527344 88.457031 59.078125 88.984375 L 51.300781 91.804688 C 48.398438 92.859375 45.570312 96.203125 45.019531 99.242188 L 43.511719 107.527344 C 42.957031 110.566406 44.421875 114.695312 46.769531 116.703125 L 53.050781 122.082031 C 54.222656 123.085938 55.882812 123.785156 57.613281 124.101562 C 59.34375 124.414062 61.140625 124.347656 62.59375 123.820312 L 70.367188 121 C 71.164062 120.710938 71.945312 120.238281 72.6875 119.660156 L 113.796875 146.5625 C 113.445312 147.277344 113.179688 148.007812 113.050781 148.71875 L 108.523438 173.578125 C 108.425781 174.113281 108.414062 174.6875 108.433594 175.273438 L 56.941406 193.601562 C 56.621094 193.199219 56.289062 192.824219 55.921875 192.511719 L 49.640625 187.132812 C 48.46875 186.128906 46.808594 185.429688 45.078125 185.113281 C 43.351562 184.800781 41.550781 184.867188 40.097656 185.394531 L 32.324219 188.214844 C 29.421875 189.269531 26.59375 192.613281 26.042969 195.652344 L 24.535156 203.9375 C 23.980469 206.976562 25.445312 211.105469 27.792969 213.113281 Z M 27.792969 213.113281 " fill-opacity="1" fill-rule="nonzero"/></g></g></g><g clip-path="url(#b82b951a79)"><path fill="#ffffff" d="M 218.675781 175.671875 L 214.199219 178.445312 L 228.847656 148.632812 C 233.398438 139.378906 242.816406 133.515625 253.125 133.515625 C 263.523438 133.515625 272.996094 139.480469 277.503906 148.851562 L 335.472656 269.148438 C 336.472656 271.238281 338.085938 272.96875 340.101562 274.117188 C 343.726562 276.183594 348.199219 276.097656 351.746094 273.902344 L 356.222656 271.125 L 341.574219 300.9375 C 337.023438 310.191406 327.613281 316.054688 317.296875 316.054688 C 306.898438 316.054688 297.425781 310.09375 292.917969 300.71875 L 234.949219 180.421875 C 233.949219 178.335938 232.335938 176.605469 230.320312 175.457031 C 226.691406 173.386719 222.222656 173.472656 218.675781 175.671875 Z M 124.21875 175.457031 C 126.234375 176.605469 127.847656 178.335938 128.847656 180.421875 L 186.816406 300.71875 C 191.316406 310.09375 200.796875 316.054688 211.195312 316.054688 C 221.503906 316.054688 230.921875 310.191406 235.472656 300.9375 L 250.121094 271.125 L 245.644531 273.902344 C 242.097656 276.105469 237.628906 276.183594 234 274.117188 C 231.984375 272.96875 230.371094 271.238281 229.371094 269.148438 L 171.402344 148.851562 C 166.894531 139.480469 157.421875 133.515625 147.023438 133.515625 C 136.714844 133.515625 127.296875 139.378906 122.746094 148.632812 L 108.097656 178.445312 L 112.574219 175.671875 C 116.121094 173.472656 120.589844 173.386719 124.21875 175.457031 Z M 61.792969 284.09375 L 69.804688 300.722656 C 74.308594 310.097656 83.785156 316.058594 94.1875 316.058594 C 104.496094 316.058594 113.910156 310.195312 118.460938 300.945312 L 133.109375 271.132812 L 128.632812 273.90625 C 125.085938 276.109375 120.617188 276.191406 116.988281 274.121094 C 114.972656 272.972656 113.359375 271.242188 112.359375 269.15625 L 99.914062 243.332031 C 95.148438 233.449219 81.097656 233.394531 76.257812 243.242188 L 61.84375 272.574219 C 60.058594 276.203125 60.046875 280.453125 61.792969 284.09375 Z M 61.792969 284.09375 " fill-opacity="1" fill-rule="nonzero"/></g></svg>